<svg class="w-5 h-5 md:w-7 md:h-7" width="29" height="28" viewBox="0 0 29 28" fill="none" xmlns="http://www.w3.org/2000/svg"><path d="M25.3577 18.5849C25.1711 18.2699 24.6461 17.7799 23.3394 18.0133C22.6161 18.1416 21.8811 18.1999 21.1461 18.1649C18.4277 18.0483 15.9661 16.7999 14.2511 14.8749C12.7344 13.1833 11.8011 10.9783 11.7894 8.59827C11.7894 7.26827 12.0461 5.98493 12.5711 4.7716C13.0844 3.59327 12.7227 2.97493 12.4661 2.71827C12.1977 2.44993 11.5677 2.0766 10.3311 2.58993C5.5594 4.5966 2.60774 9.37993 2.95774 14.5016C3.30774 19.3199 6.69107 23.4383 11.1711 24.9899C12.2444 25.3633 13.3761 25.5849 14.5427 25.6316C14.7294 25.6433 14.9161 25.6549 15.1027 25.6549C19.0111 25.6549 22.6744 23.8116 24.9844 20.6733C25.7661 19.5883 25.5561 18.8999 25.3577 18.5849Z" fill="#2160DC" fill-opacity="1"></path></svg>