<?xml version="1.0" encoding="UTF-8"?>
<!DOCTYPE svg PUBLIC "-//W3C//DTD SVG 1.1//EN" "http://www.w3.org/Graphics/SVG/1.1/DTD/svg11.dtd">
<!-- Creator: CorelDRAW 2018 (64-Bit) -->
<svg xmlns="http://www.w3.org/2000/svg" xml:space="preserve" width="45.7795mm" height="6.3261mm" version="1.1" style="shape-rendering:geometricPrecision; text-rendering:geometricPrecision; image-rendering:optimizeQuality; fill-rule:evenodd; clip-rule:evenodd"
viewBox="0 0 8936.16 1234.86"
 xmlns:xlink="http://www.w3.org/1999/xlink">
 <defs>
  <style type="text/css">
   <![CDATA[
    .fil0 {fill:black;fill-rule:nonzero}
   ]]>
  </style>
   <clipPath id="id0" style="clip-rule:nonzero">
    <path d="M-0 1218.32l0 -1202.06 496.63 0c90.07,0 167.75,17.63 233.3,52.61 65.57,34.98 115.97,83.74 151.79,146.26 35.53,62.25 53.15,134.69 53.15,217.34 0,82.9 -17.9,155.36 -54.27,217.34 -36.07,62.25 -87.59,110.17 -154.52,144.06 -66.93,34.14 -146.26,51.22 -238.26,51.22l-306.31 0 0 -228.89 252.32 0c43.78,0 80.42,-7.71 109.9,-22.86 29.75,-15.42 52.06,-36.64 67.21,-64.18 15.42,-27.82 22.86,-59.77 22.86,-96.68 0,-37.19 -7.44,-69.41 -22.86,-96.41 -15.15,-27.27 -37.73,-48.49 -67.48,-63.36 -29.75,-14.6 -66.11,-22.04 -109.62,-22.04l-143.24 0 0 967.67 -290.59 0z"/>
   </clipPath>
    <clipPath id="id1">
     <path d="M-0 1218.32l0 -1202.06 496.63 0c90.07,0 167.75,17.63 233.3,52.61 65.57,34.98 115.97,83.74 151.79,146.26 35.53,62.25 53.15,134.69 53.15,217.34 0,82.9 -17.9,155.36 -54.27,217.34 -36.07,62.25 -87.59,110.17 -154.52,144.06 -66.93,34.14 -146.26,51.22 -238.26,51.22l-306.31 0 0 -228.89 252.32 0c43.78,0 80.42,-7.71 109.9,-22.86 29.75,-15.42 52.06,-36.64 67.21,-64.18 15.42,-27.82 22.86,-59.77 22.86,-96.68 0,-37.19 -7.44,-69.41 -22.86,-96.41 -15.15,-27.27 -37.73,-48.49 -67.48,-63.36 -29.75,-14.6 -66.11,-22.04 -109.62,-22.04l-143.24 0 0 967.67 -290.59 0z"/>
    </clipPath>
    <clipPath id="id2">
     <path d="M-0 1218.32l0 -1202.06 496.63 0c90.07,0 167.75,17.63 233.3,52.61 65.57,34.98 115.97,83.74 151.79,146.26 35.53,62.25 53.15,134.69 53.15,217.34 0,82.9 -17.9,155.36 -54.27,217.34 -36.07,62.25 -87.59,110.17 -154.52,144.06 -66.93,34.14 -146.26,51.22 -238.26,51.22l-306.31 0 0 -228.89 252.32 0c43.78,0 80.42,-7.71 109.9,-22.86 29.75,-15.42 52.06,-36.64 67.21,-64.18 15.42,-27.82 22.86,-59.77 22.86,-96.68 0,-37.19 -7.44,-69.41 -22.86,-96.41 -15.15,-27.27 -37.73,-48.49 -67.48,-63.36 -29.75,-14.6 -66.11,-22.04 -109.62,-22.04l-143.24 0 0 967.67 -290.59 0z"/>
    </clipPath>
   <clipPath id="id3" style="clip-rule:nonzero">
    <path d="M2212.14 617.28c0,132.23 -25.36,244.33 -76.3,336.33 -50.97,92 -119.54,161.68 -206.31,209.63 -86.77,47.65 -183.74,71.62 -291.43,71.62 -107.98,0 -205.21,-24.24 -291.71,-72.17 -86.49,-48.21 -155.07,-118.17 -205.76,-209.9 -50.67,-91.72 -76.03,-203.55 -76.03,-335.51 0,-132.21 25.36,-244.31 76.03,-336.31 50.69,-91.72 119.27,-161.7 205.76,-209.35 86.49,-47.92 183.72,-71.62 291.71,-71.62 107.69,0 204.67,23.7 291.43,71.62 86.77,47.65 155.34,117.63 206.31,209.35 50.95,92 76.3,204.1 76.3,336.31zm-296.94 0c0,-78.22 -11.03,-144.33 -33.34,-198.32 -22.04,-53.97 -53.7,-94.75 -95.02,-122.57 -41.32,-27.82 -90.9,-41.87 -148.74,-41.87 -57.56,0 -106.87,14.05 -148.47,41.87 -41.6,27.82 -73.28,68.59 -95.3,122.57 -22.04,53.99 -33.34,120.11 -33.34,198.32 0,78.24 11.3,144.35 33.34,198.32 22.02,53.99 53.7,95.04 95.3,122.86 41.6,27.82 90.9,41.6 148.47,41.6 57.84,0 107.42,-13.78 148.74,-41.6 41.32,-27.82 72.99,-68.87 95.02,-122.86 22.31,-53.97 33.34,-120.09 33.34,-198.32z"/>
   </clipPath>
    <clipPath id="id4">
     <path d="M2212.14 617.28c0,132.23 -25.36,244.33 -76.3,336.33 -50.97,92 -119.54,161.68 -206.31,209.63 -86.77,47.65 -183.74,71.62 -291.43,71.62 -107.98,0 -205.21,-24.24 -291.71,-72.17 -86.49,-48.21 -155.07,-118.17 -205.76,-209.9 -50.67,-91.72 -76.03,-203.55 -76.03,-335.51 0,-132.21 25.36,-244.31 76.03,-336.31 50.69,-91.72 119.27,-161.7 205.76,-209.35 86.49,-47.92 183.72,-71.62 291.71,-71.62 107.69,0 204.67,23.7 291.43,71.62 86.77,47.65 155.34,117.63 206.31,209.35 50.95,92 76.3,204.1 76.3,336.31zm-296.94 0c0,-78.22 -11.03,-144.33 -33.34,-198.32 -22.04,-53.97 -53.7,-94.75 -95.02,-122.57 -41.32,-27.82 -90.9,-41.87 -148.74,-41.87 -57.56,0 -106.87,14.05 -148.47,41.87 -41.6,27.82 -73.28,68.59 -95.3,122.57 -22.04,53.99 -33.34,120.11 -33.34,198.32 0,78.24 11.3,144.35 33.34,198.32 22.02,53.99 53.7,95.04 95.3,122.86 41.6,27.82 90.9,41.6 148.47,41.6 57.84,0 107.42,-13.78 148.74,-41.6 41.32,-27.82 72.99,-68.87 95.02,-122.86 22.31,-53.97 33.34,-120.09 33.34,-198.32z"/>
    </clipPath>
    <clipPath id="id5">
     <path d="M2212.14 617.28c0,132.23 -25.36,244.33 -76.3,336.33 -50.97,92 -119.54,161.68 -206.31,209.63 -86.77,47.65 -183.74,71.62 -291.43,71.62 -107.98,0 -205.21,-24.24 -291.71,-72.17 -86.49,-48.21 -155.07,-118.17 -205.76,-209.9 -50.67,-91.72 -76.03,-203.55 -76.03,-335.51 0,-132.21 25.36,-244.31 76.03,-336.31 50.69,-91.72 119.27,-161.7 205.76,-209.35 86.49,-47.92 183.72,-71.62 291.71,-71.62 107.69,0 204.67,23.7 291.43,71.62 86.77,47.65 155.34,117.63 206.31,209.35 50.95,92 76.3,204.1 76.3,336.31zm-296.94 0c0,-78.22 -11.03,-144.33 -33.34,-198.32 -22.04,-53.97 -53.7,-94.75 -95.02,-122.57 -41.32,-27.82 -90.9,-41.87 -148.74,-41.87 -57.56,0 -106.87,14.05 -148.47,41.87 -41.6,27.82 -73.28,68.59 -95.3,122.57 -22.04,53.99 -33.34,120.11 -33.34,198.32 0,78.24 11.3,144.35 33.34,198.32 22.02,53.99 53.7,95.04 95.3,122.86 41.6,27.82 90.9,41.6 148.47,41.6 57.84,0 107.42,-13.78 148.74,-41.6 41.32,-27.82 72.99,-68.87 95.02,-122.86 22.31,-53.97 33.34,-120.09 33.34,-198.32z"/>
    </clipPath>
   <clipPath id="id6" style="clip-rule:nonzero">
    <path d="M2380.99 1218.32l0 -1202.06 290.59 0 0 508.2 15.69 0 397.49 -508.2 342.11 0 -426.12 536.57 433.83 665.5 -347.34 0 -299.42 -472.4 -116.24 146.54 0 325.87 -290.59 0z"/>
   </clipPath>
    <clipPath id="id7">
     <path d="M2380.99 1218.32l0 -1202.06 290.59 0 0 508.2 15.69 0 397.49 -508.2 342.11 0 -426.12 536.57 433.83 665.5 -347.34 0 -299.42 -472.4 -116.24 146.54 0 325.87 -290.59 0z"/>
    </clipPath>
    <clipPath id="id8">
     <path d="M2380.99 1218.32l0 -1202.06 290.59 0 0 508.2 15.69 0 397.49 -508.2 342.11 0 -426.12 536.57 433.83 665.5 -347.34 0 -299.42 -472.4 -116.24 146.54 0 325.87 -290.59 0z"/>
    </clipPath>
   <clipPath id="id9" style="clip-rule:nonzero">
    <path d="M3541.18 1218.32l0 -1202.06 838.19 0 0 236.06 -547.59 0 0 246.54 504.63 0 0 236.33 -504.63 0 0 247.08 547.59 0 0 236.06 -838.19 0z"/>
   </clipPath>
    <clipPath id="id10">
     <path d="M3541.18 1218.32l0 -1202.06 838.19 0 0 236.06 -547.59 0 0 246.54 504.63 0 0 236.33 -504.63 0 0 247.08 547.59 0 0 236.06 -838.19 0z"/>
    </clipPath>
    <clipPath id="id11">
     <path d="M3541.18 1218.32l0 -1202.06 838.19 0 0 236.06 -547.59 0 0 246.54 504.63 0 0 236.33 -504.63 0 0 247.08 547.59 0 0 236.06 -838.19 0z"/>
    </clipPath>
   <clipPath id="id12" style="clip-rule:nonzero">
    <path d="M4821.21 1218.32l-312.09 0 405.45 -1202.06 386.73 0 405.47 1202.06 -312.09 0 -282.34 -899.07 -9.37 0 -281.77 899.07zm-41.6 -472.95l652.53 0 0 220.63 -652.53 0 0 -220.63z"/>
   </clipPath>
    <clipPath id="id13">
     <path d="M4821.21 1218.32l-312.09 0 405.45 -1202.06 386.73 0 405.47 1202.06 -312.09 0 -282.34 -899.07 -9.37 0 -281.77 899.07zm-41.6 -472.95l652.53 0 0 220.63 -652.53 0 0 -220.63z"/>
    </clipPath>
    <clipPath id="id14">
     <path d="M4821.21 1218.32l-312.09 0 405.45 -1202.06 386.73 0 405.47 1202.06 -312.09 0 -282.34 -899.07 -9.37 0 -281.77 899.07zm-41.6 -472.95l652.53 0 0 220.63 -652.53 0 0 -220.63z"/>
    </clipPath>
   <clipPath id="id15" style="clip-rule:nonzero">
    <path d="M5836.52 1218.32l0 -1202.06 496.63 0c90.07,0 167.75,17.63 233.3,52.61 65.57,34.98 115.97,83.74 151.79,146.26 35.53,62.25 53.15,134.69 53.15,217.34 0,82.9 -17.9,155.36 -54.27,217.34 -36.07,62.25 -87.59,110.17 -154.52,144.06 -66.93,34.14 -146.26,51.22 -238.26,51.22l-306.31 0 0 -228.89 252.32 0c43.78,0 80.42,-7.71 109.9,-22.86 29.75,-15.42 52.06,-36.64 67.21,-64.18 15.42,-27.82 22.86,-59.77 22.86,-96.68 0,-37.19 -7.44,-69.41 -22.86,-96.41 -15.15,-27.27 -37.73,-48.49 -67.48,-63.36 -29.75,-14.6 -66.11,-22.04 -109.62,-22.04l-143.24 0 0 967.67 -290.59 0z"/>
   </clipPath>
    <clipPath id="id16">
     <path d="M5836.52 1218.32l0 -1202.06 496.63 0c90.07,0 167.75,17.63 233.3,52.61 65.57,34.98 115.97,83.74 151.79,146.26 35.53,62.25 53.15,134.69 53.15,217.34 0,82.9 -17.9,155.36 -54.27,217.34 -36.07,62.25 -87.59,110.17 -154.52,144.06 -66.93,34.14 -146.26,51.22 -238.26,51.22l-306.31 0 0 -228.89 252.32 0c43.78,0 80.42,-7.71 109.9,-22.86 29.75,-15.42 52.06,-36.64 67.21,-64.18 15.42,-27.82 22.86,-59.77 22.86,-96.68 0,-37.19 -7.44,-69.41 -22.86,-96.41 -15.15,-27.27 -37.73,-48.49 -67.48,-63.36 -29.75,-14.6 -66.11,-22.04 -109.62,-22.04l-143.24 0 0 967.67 -290.59 0z"/>
    </clipPath>
    <clipPath id="id17">
     <path d="M5836.52 1218.32l0 -1202.06 496.63 0c90.07,0 167.75,17.63 233.3,52.61 65.57,34.98 115.97,83.74 151.79,146.26 35.53,62.25 53.15,134.69 53.15,217.34 0,82.9 -17.9,155.36 -54.27,217.34 -36.07,62.25 -87.59,110.17 -154.52,144.06 -66.93,34.14 -146.26,51.22 -238.26,51.22l-306.31 0 0 -228.89 252.32 0c43.78,0 80.42,-7.71 109.9,-22.86 29.75,-15.42 52.06,-36.64 67.21,-64.18 15.42,-27.82 22.86,-59.77 22.86,-96.68 0,-37.19 -7.44,-69.41 -22.86,-96.41 -15.15,-27.27 -37.73,-48.49 -67.48,-63.36 -29.75,-14.6 -66.11,-22.04 -109.62,-22.04l-143.24 0 0 967.67 -290.59 0z"/>
    </clipPath>
   <clipPath id="id18" style="clip-rule:nonzero">
    <path d="M6914.09 1218.32l0 -1202.06 496.63 0c90.07,0 167.75,17.63 233.3,52.61 65.57,34.98 115.97,83.74 151.79,146.26 35.53,62.25 53.15,134.69 53.15,217.34 0,82.9 -17.9,155.36 -54.27,217.34 -36.07,62.25 -87.59,110.17 -154.52,144.06 -66.93,34.14 -146.26,51.22 -238.26,51.22l-306.31 0 0 -228.89 252.32 0c43.78,0 80.42,-7.71 109.9,-22.86 29.75,-15.42 52.06,-36.64 67.21,-64.18 15.42,-27.82 22.86,-59.77 22.86,-96.68 0,-37.19 -7.44,-69.41 -22.86,-96.41 -15.15,-27.27 -37.73,-48.49 -67.48,-63.36 -29.75,-14.6 -66.11,-22.04 -109.62,-22.04l-143.24 0 0 967.67 -290.59 0z"/>
   </clipPath>
    <clipPath id="id19">
     <path d="M6914.09 1218.32l0 -1202.06 496.63 0c90.07,0 167.75,17.63 233.3,52.61 65.57,34.98 115.97,83.74 151.79,146.26 35.53,62.25 53.15,134.69 53.15,217.34 0,82.9 -17.9,155.36 -54.27,217.34 -36.07,62.25 -87.59,110.17 -154.52,144.06 -66.93,34.14 -146.26,51.22 -238.26,51.22l-306.31 0 0 -228.89 252.32 0c43.78,0 80.42,-7.71 109.9,-22.86 29.75,-15.42 52.06,-36.64 67.21,-64.18 15.42,-27.82 22.86,-59.77 22.86,-96.68 0,-37.19 -7.44,-69.41 -22.86,-96.41 -15.15,-27.27 -37.73,-48.49 -67.48,-63.36 -29.75,-14.6 -66.11,-22.04 -109.62,-22.04l-143.24 0 0 967.67 -290.59 0z"/>
    </clipPath>
    <clipPath id="id20">
     <path d="M6914.09 1218.32l0 -1202.06 496.63 0c90.07,0 167.75,17.63 233.3,52.61 65.57,34.98 115.97,83.74 151.79,146.26 35.53,62.25 53.15,134.69 53.15,217.34 0,82.9 -17.9,155.36 -54.27,217.34 -36.07,62.25 -87.59,110.17 -154.52,144.06 -66.93,34.14 -146.26,51.22 -238.26,51.22l-306.31 0 0 -228.89 252.32 0c43.78,0 80.42,-7.71 109.9,-22.86 29.75,-15.42 52.06,-36.64 67.21,-64.18 15.42,-27.82 22.86,-59.77 22.86,-96.68 0,-37.19 -7.44,-69.41 -22.86,-96.41 -15.15,-27.27 -37.73,-48.49 -67.48,-63.36 -29.75,-14.6 -66.11,-22.04 -109.62,-22.04l-143.24 0 0 967.67 -290.59 0z"/>
    </clipPath>
   <clipPath id="id21" style="clip-rule:nonzero">
    <path d="M8641.43 376.81c-3.86,-43.24 -21.22,-76.58 -52.06,-100.8 -30.57,-23.97 -74.37,-36.09 -131.12,-36.09 -37.46,0 -68.87,4.96 -93.93,14.6 -25.06,9.92 -43.8,23.4 -56.2,40.21 -12.67,17.08 -18.99,36.64 -19.54,58.4 -0.57,18.17 3.03,33.87 11.01,47.65 7.98,13.78 19.83,25.61 35.25,36.09 15.42,10.46 34.16,19.56 55.92,27.27 22.04,7.71 46.56,14.6 74.1,20.65l103.28 23.4c59.22,12.96 111.83,30.04 157.57,51.51 45.44,21.49 83.74,47.38 114.86,77.12 31.13,29.48 54.81,63.91 70.8,102.48 15.97,38.83 24.24,82.35 24.79,130.28 -0.55,76.03 -19.83,141.03 -57.56,195.57 -38.02,54.27 -92.56,96.14 -163.62,125.06 -70.8,28.91 -156.47,43.24 -256.73,43.24 -100.55,0 -188.13,-14.87 -262.78,-45.17 -74.92,-30.02 -133.05,-75.76 -174.35,-137.17 -41.6,-61.43 -62.82,-139.12 -63.91,-233.05l278.2 0c2.21,38.57 12.67,71.07 30.86,96.68 18.45,25.9 43.78,45.46 76.01,58.68 32.5,13.51 69.96,20.11 112.4,20.11 39.1,0 72.44,-5.23 100.25,-15.97 27.54,-10.46 48.76,-25.06 63.64,-43.8 14.87,-19.01 22.58,-40.48 22.86,-64.73 -0.27,-22.58 -7.44,-42.14 -21.22,-58.4 -13.76,-16.24 -34.71,-30.3 -63.07,-42.14 -28.38,-12.1 -64.46,-23.13 -108.26,-33.32l-125.59 -29.2c-104.12,-23.95 -185.95,-62.52 -245.99,-115.97 -59.77,-53.43 -89.52,-125.59 -89.25,-216.77 -0.27,-74.37 19.83,-139.65 60.04,-195.57 40.23,-55.92 95.86,-99.43 167.21,-130.84 71.35,-31.11 152.31,-46.83 243.49,-46.83 93.11,0 174.08,15.71 242.67,47.1 68.87,31.68 122.02,75.76 160.04,132.5 38.01,56.74 57.29,122.29 58.11,197.21l-278.2 0z"/>
   </clipPath>
    <clipPath id="id22">
     <path d="M8641.43 376.81c-3.86,-43.24 -21.22,-76.58 -52.06,-100.8 -30.57,-23.97 -74.37,-36.09 -131.12,-36.09 -37.46,0 -68.87,4.96 -93.93,14.6 -25.06,9.92 -43.8,23.4 -56.2,40.21 -12.67,17.08 -18.99,36.64 -19.54,58.4 -0.57,18.17 3.03,33.87 11.01,47.65 7.98,13.78 19.83,25.61 35.25,36.09 15.42,10.46 34.16,19.56 55.92,27.27 22.04,7.71 46.56,14.6 74.1,20.65l103.28 23.4c59.22,12.96 111.83,30.04 157.57,51.51 45.44,21.49 83.74,47.38 114.86,77.12 31.13,29.48 54.81,63.91 70.8,102.48 15.97,38.83 24.24,82.35 24.79,130.28 -0.55,76.03 -19.83,141.03 -57.56,195.57 -38.02,54.27 -92.56,96.14 -163.62,125.06 -70.8,28.91 -156.47,43.24 -256.73,43.24 -100.55,0 -188.13,-14.87 -262.78,-45.17 -74.92,-30.02 -133.05,-75.76 -174.35,-137.17 -41.6,-61.43 -62.82,-139.12 -63.91,-233.05l278.2 0c2.21,38.57 12.67,71.07 30.86,96.68 18.45,25.9 43.78,45.46 76.01,58.68 32.5,13.51 69.96,20.11 112.4,20.11 39.1,0 72.44,-5.23 100.25,-15.97 27.54,-10.46 48.76,-25.06 63.64,-43.8 14.87,-19.01 22.58,-40.48 22.86,-64.73 -0.27,-22.58 -7.44,-42.14 -21.22,-58.4 -13.76,-16.24 -34.71,-30.3 -63.07,-42.14 -28.38,-12.1 -64.46,-23.13 -108.26,-33.32l-125.59 -29.2c-104.12,-23.95 -185.95,-62.52 -245.99,-115.97 -59.77,-53.43 -89.52,-125.59 -89.25,-216.77 -0.27,-74.37 19.83,-139.65 60.04,-195.57 40.23,-55.92 95.86,-99.43 167.21,-130.84 71.35,-31.11 152.31,-46.83 243.49,-46.83 93.11,0 174.08,15.71 242.67,47.1 68.87,31.68 122.02,75.76 160.04,132.5 38.01,56.74 57.29,122.29 58.11,197.21l-278.2 0z"/>
    </clipPath>
    <clipPath id="id23">
     <path d="M8641.43 376.81c-3.86,-43.24 -21.22,-76.58 -52.06,-100.8 -30.57,-23.97 -74.37,-36.09 -131.12,-36.09 -37.46,0 -68.87,4.96 -93.93,14.6 -25.06,9.92 -43.8,23.4 -56.2,40.21 -12.67,17.08 -18.99,36.64 -19.54,58.4 -0.57,18.17 3.03,33.87 11.01,47.65 7.98,13.78 19.83,25.61 35.25,36.09 15.42,10.46 34.16,19.56 55.92,27.27 22.04,7.71 46.56,14.6 74.1,20.65l103.28 23.4c59.22,12.96 111.83,30.04 157.57,51.51 45.44,21.49 83.74,47.38 114.86,77.12 31.13,29.48 54.81,63.91 70.8,102.48 15.97,38.83 24.24,82.35 24.79,130.28 -0.55,76.03 -19.83,141.03 -57.56,195.57 -38.02,54.27 -92.56,96.14 -163.62,125.06 -70.8,28.91 -156.47,43.24 -256.73,43.24 -100.55,0 -188.13,-14.87 -262.78,-45.17 -74.92,-30.02 -133.05,-75.76 -174.35,-137.17 -41.6,-61.43 -62.82,-139.12 -63.91,-233.05l278.2 0c2.21,38.57 12.67,71.07 30.86,96.68 18.45,25.9 43.78,45.46 76.01,58.68 32.5,13.51 69.96,20.11 112.4,20.11 39.1,0 72.44,-5.23 100.25,-15.97 27.54,-10.46 48.76,-25.06 63.64,-43.8 14.87,-19.01 22.58,-40.48 22.86,-64.73 -0.27,-22.58 -7.44,-42.14 -21.22,-58.4 -13.76,-16.24 -34.71,-30.3 -63.07,-42.14 -28.38,-12.1 -64.46,-23.13 -108.26,-33.32l-125.59 -29.2c-104.12,-23.95 -185.95,-62.52 -245.99,-115.97 -59.77,-53.43 -89.52,-125.59 -89.25,-216.77 -0.27,-74.37 19.83,-139.65 60.04,-195.57 40.23,-55.92 95.86,-99.43 167.21,-130.84 71.35,-31.11 152.31,-46.83 243.49,-46.83 93.11,0 174.08,15.71 242.67,47.1 68.87,31.68 122.02,75.76 160.04,132.5 38.01,56.74 57.29,122.29 58.11,197.21l-278.2 0z"/>
    </clipPath>
 </defs>
 <g id="Layer_x0020_1">
  <metadata id="CorelCorpID_0Corel-Layer"/>
  <path class="fil0" d="M-0 1218.32l0 -1202.06 496.63 0c90.07,0 167.75,17.63 233.3,52.61 65.57,34.98 115.97,83.74 151.79,146.26 35.53,62.25 53.15,134.69 53.15,217.34 0,82.9 -17.9,155.36 -54.27,217.34 -36.07,62.25 -87.59,110.17 -154.52,144.06 -66.93,34.14 -146.26,51.22 -238.26,51.22l-306.31 0 0 -228.89 252.32 0c43.78,0 80.42,-7.71 109.9,-22.86 29.75,-15.42 52.06,-36.64 67.21,-64.18 15.42,-27.82 22.86,-59.77 22.86,-96.68 0,-37.19 -7.44,-69.41 -22.86,-96.41 -15.15,-27.27 -37.73,-48.49 -67.48,-63.36 -29.75,-14.6 -66.11,-22.04 -109.62,-22.04l-143.24 0 0 967.67 -290.59 0zm2212.14 -601.04c0,132.23 -25.36,244.33 -76.3,336.33 -50.97,92 -119.54,161.68 -206.31,209.63 -86.77,47.65 -183.74,71.62 -291.43,71.62 -107.98,0 -205.21,-24.24 -291.71,-72.17 -86.49,-48.21 -155.07,-118.17 -205.76,-209.9 -50.67,-91.72 -76.03,-203.55 -76.03,-335.51 0,-132.21 25.36,-244.31 76.03,-336.31 50.69,-91.72 119.27,-161.7 205.76,-209.35 86.49,-47.92 183.72,-71.62 291.71,-71.62 107.69,0 204.67,23.7 291.43,71.62 86.77,47.65 155.34,117.63 206.31,209.35 50.95,92 76.3,204.1 76.3,336.31zm-296.94 0c0,-78.22 -11.03,-144.33 -33.34,-198.32 -22.04,-53.97 -53.7,-94.75 -95.02,-122.57 -41.32,-27.82 -90.9,-41.87 -148.74,-41.87 -57.56,0 -106.87,14.05 -148.47,41.87 -41.6,27.82 -73.28,68.59 -95.3,122.57 -22.04,53.99 -33.34,120.11 -33.34,198.32 0,78.24 11.3,144.35 33.34,198.32 22.02,53.99 53.7,95.04 95.3,122.86 41.6,27.82 90.9,41.6 148.47,41.6 57.84,0 107.42,-13.78 148.74,-41.6 41.32,-27.82 72.99,-68.87 95.02,-122.86 22.31,-53.97 33.34,-120.09 33.34,-198.32zm465.79 601.04l0 -1202.06 290.59 0 0 508.2 15.69 0 397.49 -508.2 342.11 0 -426.12 536.57 433.83 665.5 -347.34 0 -299.42 -472.4 -116.24 146.54 0 325.87 -290.59 0zm1160.19 0l0 -1202.06 838.19 0 0 236.06 -547.59 0 0 246.54 504.63 0 0 236.33 -504.63 0 0 247.08 547.59 0 0 236.06 -838.19 0zm1280.02 0l-312.09 0 405.45 -1202.06 386.73 0 405.47 1202.06 -312.09 0 -282.34 -899.07 -9.37 0 -281.77 899.07zm-41.6 -472.95l652.53 0 0 220.63 -652.53 0 0 -220.63zm1056.91 472.95l0 -1202.06 496.63 0c90.07,0 167.75,17.63 233.3,52.61 65.57,34.98 115.97,83.74 151.79,146.26 35.53,62.25 53.15,134.69 53.15,217.34 0,82.9 -17.9,155.36 -54.27,217.34 -36.07,62.25 -87.59,110.17 -154.52,144.06 -66.93,34.14 -146.26,51.22 -238.26,51.22l-306.31 0 0 -228.89 252.32 0c43.78,0 80.42,-7.71 109.9,-22.86 29.75,-15.42 52.06,-36.64 67.21,-64.18 15.42,-27.82 22.86,-59.77 22.86,-96.68 0,-37.19 -7.44,-69.41 -22.86,-96.41 -15.15,-27.27 -37.73,-48.49 -67.48,-63.36 -29.75,-14.6 -66.11,-22.04 -109.62,-22.04l-143.24 0 0 967.67 -290.59 0zm1077.56 0l0 -1202.06 496.63 0c90.07,0 167.75,17.63 233.3,52.61 65.57,34.98 115.97,83.74 151.79,146.26 35.53,62.25 53.15,134.69 53.15,217.34 0,82.9 -17.9,155.36 -54.27,217.34 -36.07,62.25 -87.59,110.17 -154.52,144.06 -66.93,34.14 -146.26,51.22 -238.26,51.22l-306.31 0 0 -228.89 252.32 0c43.78,0 80.42,-7.71 109.9,-22.86 29.75,-15.42 52.06,-36.64 67.21,-64.18 15.42,-27.82 22.86,-59.77 22.86,-96.68 0,-37.19 -7.44,-69.41 -22.86,-96.41 -15.15,-27.27 -37.73,-48.49 -67.48,-63.36 -29.75,-14.6 -66.11,-22.04 -109.62,-22.04l-143.24 0 0 967.67 -290.59 0zm1727.35 -841.51c-3.86,-43.24 -21.22,-76.58 -52.06,-100.8 -30.57,-23.97 -74.37,-36.09 -131.12,-36.09 -37.46,0 -68.87,4.96 -93.93,14.6 -25.06,9.92 -43.8,23.4 -56.2,40.21 -12.67,17.08 -18.99,36.64 -19.54,58.4 -0.57,18.17 3.03,33.87 11.01,47.65 7.98,13.78 19.83,25.61 35.25,36.09 15.42,10.46 34.16,19.56 55.92,27.27 22.04,7.71 46.56,14.6 74.1,20.65l103.28 23.4c59.22,12.96 111.83,30.04 157.57,51.51 45.44,21.49 83.74,47.38 114.86,77.12 31.13,29.48 54.81,63.91 70.8,102.48 15.97,38.83 24.24,82.35 24.79,130.28 -0.55,76.03 -19.83,141.03 -57.56,195.57 -38.02,54.27 -92.56,96.14 -163.62,125.06 -70.8,28.91 -156.47,43.24 -256.73,43.24 -100.55,0 -188.13,-14.87 -262.78,-45.17 -74.92,-30.02 -133.05,-75.76 -174.35,-137.17 -41.6,-61.43 -62.82,-139.12 -63.91,-233.05l278.2 0c2.21,38.57 12.67,71.07 30.86,96.68 18.45,25.9 43.78,45.46 76.01,58.68 32.5,13.51 69.96,20.11 112.4,20.11 39.1,0 72.44,-5.23 100.25,-15.97 27.54,-10.46 48.76,-25.06 63.64,-43.8 14.87,-19.01 22.58,-40.48 22.86,-64.73 -0.27,-22.58 -7.44,-42.14 -21.22,-58.4 -13.76,-16.24 -34.71,-30.3 -63.07,-42.14 -28.38,-12.1 -64.46,-23.13 -108.26,-33.32l-125.59 -29.2c-104.12,-23.95 -185.95,-62.52 -245.99,-115.97 -59.77,-53.43 -89.52,-125.59 -89.25,-216.77 -0.27,-74.37 19.83,-139.65 60.04,-195.57 40.23,-55.92 95.86,-99.43 167.21,-130.84 71.35,-31.11 152.31,-46.83 243.49,-46.83 93.11,0 174.08,15.71 242.67,47.1 68.87,31.68 122.02,75.76 160.04,132.5 38.01,56.74 57.29,122.29 58.11,197.21l-278.2 0z"/>
  <g style="clip-path:url(#id0)">
   <g id="_2512471600448">
   </g>
   <g style="clip-path:url(#id1)">
    <image id="pokehd.jpg" x="-27.25" y="-2754.06" width="8990.66" height="6742.99" xlink:href="logo_Images\logo_ImgID1.png"/>
   </g>
   <g style="clip-path:url(#id2)">
   </g>
  </g>
  <g style="clip-path:url(#id3)">
   <g id="_2512471600448">
   </g>
   <g style="clip-path:url(#id4)">
    <image id="pokehd.jpg_0" x="-27.25" y="-2754.06" width="8990.66" height="6742.99" xlink:href="logo_Images\logo_ImgID2.png"/>
   </g>
   <g style="clip-path:url(#id5)">
   </g>
  </g>
  <g style="clip-path:url(#id6)">
   <g id="_2512471600448">
   </g>
   <g style="clip-path:url(#id7)">
    <image id="pokehd.jpg_1" x="-27.25" y="-2754.06" width="8990.66" height="6742.99" xlink:href="logo_Images\logo_ImgID3.png"/>
   </g>
   <g style="clip-path:url(#id8)">
   </g>
  </g>
  <g style="clip-path:url(#id9)">
   <g id="_2512471600448">
   </g>
   <g style="clip-path:url(#id10)">
    <image id="pokehd.jpg_2" x="-27.25" y="-2754.06" width="8990.66" height="6742.99" xlink:href="logo_Images\logo_ImgID4.png"/>
   </g>
   <g style="clip-path:url(#id11)">
   </g>
  </g>
  <g style="clip-path:url(#id12)">
   <g id="_2512471600448">
   </g>
   <g style="clip-path:url(#id13)">
    <image id="pokehd.jpg_3" x="-27.25" y="-2754.06" width="8990.66" height="6742.99" xlink:href="logo_Images\logo_ImgID5.png"/>
   </g>
   <g style="clip-path:url(#id14)">
   </g>
  </g>
  <g style="clip-path:url(#id15)">
   <g id="_2512471600448">
   </g>
   <g style="clip-path:url(#id16)">
    <image id="pokehd.jpg_4" x="-27.25" y="-2754.06" width="8990.66" height="6742.99" xlink:href="logo_Images\logo_ImgID6.png"/>
   </g>
   <g style="clip-path:url(#id17)">
   </g>
  </g>
  <g style="clip-path:url(#id18)">
   <g id="_2512471600448">
   </g>
   <g style="clip-path:url(#id19)">
    <image id="pokehd.jpg_5" x="-27.25" y="-2754.06" width="8990.66" height="6742.99" xlink:href="logo_Images\logo_ImgID7.png"/>
   </g>
   <g style="clip-path:url(#id20)">
   </g>
  </g>
  <g style="clip-path:url(#id21)">
   <g id="_2512471600448">
   </g>
   <g style="clip-path:url(#id22)">
    <image id="pokehd.jpg_6" x="-27.25" y="-2754.06" width="8990.66" height="6742.99" xlink:href="logo_Images\logo_ImgID8.png"/>
   </g>
   <g style="clip-path:url(#id23)">
   </g>
  </g>
 </g>
</svg>
